<?xml version="1.0" encoding="UTF-8" standalone="no"?>
<!-- Created with Inkscape (http://www.inkscape.org/) -->

<svg
   version="1.1"
   id="svg2"
   xml:space="preserve"
   width="748.54669"
   height="255.37334"
   viewBox="0 0 748.54669 255.37334"
   sodipodi:docname="logo.svg"
   inkscape:version="1.1.2 (0a00cf5339, 2022-02-04)"
   xmlns:inkscape="http://www.inkscape.org/namespaces/inkscape"
   xmlns:sodipodi="http://sodipodi.sourceforge.net/DTD/sodipodi-0.dtd"
   xmlns="http://www.w3.org/2000/svg"
   xmlns:svg="http://www.w3.org/2000/svg"><defs
     id="defs6" /><sodipodi:namedview
     id="namedview4"
     pagecolor="#ffffff"
     bordercolor="#666666"
     borderopacity="1.0"
     inkscape:pageshadow="2"
     inkscape:pageopacity="0.0"
     inkscape:pagecheckerboard="0"
     showgrid="false"
     inkscape:zoom="0.83695514"
     inkscape:cx="326.18236"
     inkscape:cy="237.16922"
     inkscape:window-width="1920"
     inkscape:window-height="1051"
     inkscape:window-x="1920"
     inkscape:window-y="0"
     inkscape:window-maximized="1"
     inkscape:current-layer="g8" /><g
     id="g8"
     inkscape:groupmode="layer"
     inkscape:label="ink_ext_XXXXXX"
     transform="matrix(1.3333333,0,0,-1.3333333,0,255.37333)"><g
       id="g10"
       transform="scale(0.1)"><path
         d="m 592.145,946.754 c -188.176,0 -340.719,152.546 -340.719,340.726 0,188.16 152.543,340.71 340.719,340.71 188.171,0 340.714,-152.55 340.714,-340.71 0,-188.18 -152.543,-340.726 -340.714,-340.726 z M 1437.91,1841.03 H 145.387 c -58.3987,0 -105.7386,-47.34 -105.7386,-105.74 V 807.129 c 0,-415.277 336.6526,-751.9298 751.9296,-751.9298 415.272,0 751.932,336.6528 751.932,751.9298 l 0.15,928.161 c 0,58.4 -47.35,105.74 -105.75,105.74"
         style="fill:#232a59;fill-opacity:1;fill-rule:nonzero;stroke:none"
         id="path12" /><path
         d="m 1877.22,1073.12 h 130.4 v 551.71 h 161.36 v 115.44 h -455.42 v -115.44 h 163.66 v -551.71"
         style="fill:#232a59;fill-opacity:1;fill-rule:nonzero;stroke:none"
         id="path14" /><path
         d="m 3714.04,1610.27 c 105.65,0 191.61,-91.86 191.61,-204.77 0,-112.91 -85.96,-204.77 -191.61,-204.77 -105.66,0 -191.62,91.86 -191.62,204.77 0,112.91 85.96,204.77 191.62,204.77 z m 0,-539.55 c 177.33,0 321.6,150.18 321.6,334.78 0,184.59 -144.27,334.77 -321.6,334.77 -177.34,0 -321.61,-150.18 -321.61,-334.77 0,-184.6 144.27,-334.78 321.61,-334.78"
         style="fill:#232a59;fill-opacity:1;fill-rule:nonzero;stroke:none"
         id="path16" /><path
         d="m 2815.9,272.641 h 125.73 V 752.352 H 2815.9 V 272.641"
         style="fill:#232a59;fill-opacity:1;fill-rule:nonzero;stroke:none"
         id="path18" /><path
         d="m 2878.77,940.809 c -42.02,0 -76.19,-34.168 -76.19,-76.188 0,-42 34.17,-76.172 76.19,-76.172 42,0 76.17,34.172 76.17,76.172 0,42.02 -34.17,76.188 -76.17,76.188"
         style="fill:#232a59;fill-opacity:1;fill-rule:nonzero;stroke:none"
         id="path20" /><path
         d="m 4630.96,272.641 h 125.73 V 752.352 H 4630.96 V 272.641"
         style="fill:#232a59;fill-opacity:1;fill-rule:nonzero;stroke:none"
         id="path22" /><path
         d="m 4693.83,940.809 c -42.02,0 -76.19,-34.168 -76.19,-76.188 0,-42 34.17,-76.172 76.19,-76.172 41.99,0 76.17,34.172 76.17,76.172 0,42.02 -34.18,76.188 -76.17,76.188"
         style="fill:#232a59;fill-opacity:1;fill-rule:nonzero;stroke:none"
         id="path24" /><path
         d="m 4358.21,642.488 c 9.15,7.231 22.22,10.903 38.84,10.903 21.26,0 40.72,-5.782 57.83,-17.161 17,-11.339 29.29,-26.761 36.52,-45.832 l 2.99,-7.957 98.26,46.2 -2.53,6.781 c -14.55,39 -39.38,69.707 -73.79,91.297 -34.19,21.422 -74.04,32.293 -118.44,32.293 -34,0 -64.66,-6.172 -91.12,-18.371 -26.66,-12.321 -47.81,-29.782 -62.86,-51.871 -15.11,-22.25 -22.78,-48.481 -22.78,-77.95 0,-33.191 10.67,-62.34 31.74,-86.64 20.76,-24.02 51.59,-42.078 91.63,-53.711 l 74.7,-20.957 c 9.02,-2.66 17.46,-6 25.07,-9.942 7.14,-3.711 12.81,-8.101 16.84,-13.09 3.58,-4.441 5.4,-10.269 5.4,-17.339 0,-12.262 -4.63,-21.493 -14.57,-29.063 -10.28,-7.859 -24.8,-11.84 -43.13,-11.84 -24.04,0 -46.14,6.883 -65.7,20.461 -19.72,13.653 -35.37,32.93 -46.5,57.313 l -3.32,7.25 -95.85,-45.942 2.25,-6.57 c 13.96,-41.32 40.04,-74.512 77.56,-98.641 37.27,-23.968 81.54,-36.129 131.56,-36.129 35.71,0 67.35,6.18 94.02,18.372 26.96,12.32 48.39,29.75 63.69,51.82 15.44,22.25 23.26,48.219 23.26,77.156 0,34.352 -11.01,63.832 -32.73,87.652 -21.33,23.36 -51.79,41.071 -90.52,52.649 l -73,21.82 c -10.33,3.262 -19.45,6.789 -27.11,10.512 -6.92,3.34 -12.29,7.598 -15.99,12.668 -3.45,4.742 -5.21,10.551 -5.21,17.242 0,11.16 4.13,19.609 12.99,26.617"
         style="fill:#232a59;fill-opacity:1;fill-rule:nonzero;stroke:none"
         id="path26" /><path
         d="m 2600.91,1473.37 c -15.12,27.04 -36.52,48.42 -63.57,63.56 -26.98,15.11 -58.26,22.75 -92.99,22.75 -33.59,0 -63.48,-7.52 -88.82,-22.36 -10.99,-6.45 -21.82,-16.47 -30.49,-27.05 v 230 h -121.23 v -187.48 -479.48 h 121.23 0.11 v 275.03 c 0,19.52 3.8,41.29 11.32,55.18 7.44,13.84 17.97,24.78 31.28,32.51 13.36,7.73 28.84,11.66 45.98,11.66 17.68,0 33.28,-3.92 46.37,-11.63 13.03,-7.73 23.43,-18.68 30.9,-32.54 7.51,-13.92 11.31,-30.86 11.31,-50.36 v -279.85 h 121.34 v 306.21 c 0,35.27 -7.65,66.86 -22.74,93.85"
         style="fill:#232a59;fill-opacity:1;fill-rule:nonzero;stroke:none"
         id="path28" /><path
         d="m 2187.98,544.18 c 0,-81.641 -66.42,-148.059 -148.04,-148.059 -81.62,0 -148.04,66.418 -148.04,148.059 V 940.793 H 1761.74 V 544.18 c 0,-153.399 124.8,-278.2 278.2,-278.2 153.4,0 278.2,124.801 278.2,278.2 V 940.793 H 2187.98 V 544.18"
         style="fill:#232a59;fill-opacity:1;fill-rule:nonzero;stroke:none"
         id="path30" /><path
         d="m 2836.73,1441.09 c 17.24,11.03 37.2,16.64 59.32,16.64 23.19,0 43.27,-5.71 59.63,-16.96 16.33,-11.25 28.29,-26.75 35.53,-46.05 2.67,-7.16 4.53,-14.84 5.56,-22.93 h -205.91 c 1.7,7.32 3.91,14.23 6.57,20.62 8.92,21.31 22.13,37.69 39.3,48.68 z m 287.93,-139.04 c 1.73,12.16 1.76,18.41 1.76,26.43 0,31.63 -5.26,61.56 -15.64,88.93 -10.39,27.4 -25.6,52.13 -45.21,73.47 -19.66,21.4 -43.83,38.4 -71.85,50.55 -28.03,12.12 -60.89,18.25 -97.67,18.25 -43.79,0 -84.01,-10.83 -119.49,-32.2 -35.46,-21.32 -63.82,-50.68 -84.29,-87.28 -20.45,-36.59 -30.81,-79.05 -30.81,-126.18 0,-45.47 10.21,-87.47 30.35,-124.83 20.19,-37.49 48.84,-67.61 85.16,-89.51 36.33,-21.93 79.24,-33.03 127.59,-33.03 32.15,0 62.05,4.97 88.89,14.75 26.82,9.81 50.39,23.58 70.04,40.94 19.76,17.43 34.51,37.8 43.84,60.52 l 1.8,4.39 -98.66,48.43 -2.35,-4.18 c -9.74,-17.29 -23.28,-31.26 -40.3,-41.52 -16.96,-10.22 -37.94,-15.42 -62.4,-15.42 -24.46,0 -46.32,5.76 -64.96,17.11 -18.59,11.31 -32.79,27.58 -42.22,48.34 -5.1,11.2 -8.55,23.51 -10.3,36.64 h 330.31 c 0,0 3.53,5.1 6.41,25.4"
         style="fill:#232a59;fill-opacity:1;fill-rule:nonzero;stroke:none"
         id="path32" /><path
         d="m 4765.53,1441.09 c 17.23,11.03 37.19,16.64 59.31,16.64 23.2,0 43.27,-5.71 59.63,-16.96 16.33,-11.25 28.29,-26.75 35.53,-46.05 2.67,-7.16 4.54,-14.84 5.56,-22.93 h -205.9 c 1.69,7.32 3.91,14.23 6.56,20.62 8.92,21.31 22.14,37.69 39.31,48.68 z m 287.92,-139.04 c 1.73,12.16 1.76,18.41 1.76,26.43 0,31.63 -5.26,61.56 -15.64,88.93 -10.39,27.4 -25.6,52.13 -45.21,73.47 -19.66,21.4 -43.83,38.4 -71.85,50.55 -28.03,12.12 -60.88,18.25 -97.67,18.25 -43.79,0 -84.01,-10.83 -119.49,-32.2 -35.46,-21.32 -63.81,-50.68 -84.28,-87.28 -20.46,-36.59 -30.82,-79.05 -30.82,-126.18 0,-45.47 10.21,-87.47 30.35,-124.83 20.19,-37.49 48.85,-67.61 85.17,-89.51 36.32,-21.93 79.24,-33.03 127.59,-33.03 32.14,0 62.05,4.97 88.89,14.75 26.82,9.81 50.39,23.58 70.03,40.94 19.76,17.43 34.51,37.8 43.85,60.52 l 1.79,4.39 -98.65,48.43 -2.36,-4.18 c -9.73,-17.29 -23.27,-31.26 -40.3,-41.52 -16.95,-10.22 -37.94,-15.42 -62.4,-15.42 -24.46,0 -46.32,5.76 -64.95,17.11 -18.59,11.31 -32.8,27.58 -42.23,48.34 -5.1,11.2 -8.55,23.51 -10.29,36.64 h 330.3 c 0,0 3.53,5.1 6.41,25.4"
         style="fill:#232a59;fill-opacity:1;fill-rule:nonzero;stroke:none"
         id="path34" /><path
         d="m 3585.92,640.422 c 17.23,11.027 37.19,16.637 59.31,16.637 23.19,0 43.27,-5.707 59.63,-16.957 16.33,-11.25 28.29,-26.75 35.53,-46.051 2.67,-7.16 4.54,-14.852 5.56,-22.93 h -205.91 c 1.7,7.328 3.91,14.238 6.57,20.617 8.92,21.313 22.13,37.692 39.31,48.684 z m 287.92,-139.043 c 1.73,12.16 1.76,18.41 1.76,26.43 0,31.632 -5.26,61.562 -15.64,88.941 -10.39,27.391 -25.6,52.121 -45.21,73.469 -19.66,21.39 -43.83,38.402 -71.85,50.543 -28.03,12.117 -60.89,18.258 -97.67,18.258 -43.79,0 -84.01,-10.84 -119.49,-32.2 -35.46,-21.332 -63.82,-50.691 -84.29,-87.289 -20.45,-36.59 -30.81,-79.051 -30.81,-126.172 0,-45.48 10.21,-87.48 30.35,-124.839 20.19,-37.489 48.84,-67.61 85.16,-89.508 36.33,-21.934 79.25,-33.032 127.59,-33.032 32.15,0 62.06,4.969 88.89,14.75 26.82,9.809 50.39,23.59 70.04,40.942 19.76,17.43 34.51,37.808 43.84,60.519 l 1.8,4.391 -98.65,48.43 -2.36,-4.184 c -9.73,-17.277 -23.28,-31.25 -40.3,-41.508 -16.96,-10.23 -37.94,-15.429 -62.4,-15.429 -24.46,0 -46.32,5.757 -64.96,17.109 -18.59,11.309 -32.79,27.582 -42.22,48.34 -5.1,11.199 -8.55,23.512 -10.3,36.64 h 330.31 c 0,0 3.53,5.102 6.41,25.399"
         style="fill:#232a59;fill-opacity:1;fill-rule:nonzero;stroke:none"
         id="path36" /><path
         d="m 5027,377.539 c -18.02,0 -32.89,2.813 -44.23,8.359 -11,5.352 -19.15,13.211 -24.23,23.391 -5.24,10.43 -7.89,23.352 -7.89,38.422 v 205.75 h 75.96 v 98.891 h -75.96 V 867.238 H 4832.72 V 752.352 h -37.96 v -98.891 h 37.9 v -211.93 c 0,-55.34 7.77,-98.91 38.36,-129.472 30.56,-30.59 74.13,-46.079 129.47,-46.079 9.04,0 19.04,0.602 29.71,1.801 10.68,1.18 20.15,2.36 28.45,3.547 l 4.27,0.621 V 380.77 l -21.87,-2.372 c -5.38,-0.566 -10.07,-0.859 -14.05,-0.859"
         style="fill:#232a59;fill-opacity:1;fill-rule:nonzero;stroke:none"
         id="path38" /><path
         d="m 3442.6,752.352 h -136.81 l -91.52,-283.09 c -2.2,-6.793 -3.75,-13.782 -4.65,-20.864 l -1.98,-15.687 -1.99,15.699 c -0.89,7.078 -2.45,14.059 -4.64,20.84 l -91.53,283.102 h -136.8 l 180.26,-479.711 h -0.01 0.01 109.4 v 0 0 l 180.26,479.711"
         style="fill:#232a59;fill-opacity:1;fill-rule:nonzero;stroke:none"
         id="path40" /><path
         d="m 5383.28,752.352 -97.09,-283.09 c -2.19,-6.793 -3.75,-13.782 -4.64,-20.864 l -1.99,-15.687 -1.98,15.699 c -0.9,7.078 -2.45,14.059 -4.65,20.84 l -85.96,283.102 H 5063.06 L 5187.33,308.91 c 6.45,-23.109 14.01,-32.762 29.64,-36.262 l -78.2,-206.0777 h 129.74 l 251.57,685.7817 h -136.8"
         style="fill:#232a59;fill-opacity:1;fill-rule:nonzero;stroke:none"
         id="path42" /><path
         d="m 5201.3,1519.14 c -7.22,22.25 -23.47,33.86 -48.88,33.86 h -70.7 v -3.35 -476.25 h 121.34 v 279.68 c 0,19.52 3.8,36.47 11.32,50.36 7.44,13.85 17.97,24.78 31.28,32.51 13.36,7.73 28.84,11.66 45.98,11.66 17.68,0 33.28,-3.91 46.37,-11.63 13.03,-7.73 23.43,-18.68 30.9,-32.54 7.51,-13.92 11.31,-30.85 11.31,-50.36 V 1073.4 h 121.34 v 306.04 c 0,35.27 -7.65,66.86 -22.74,93.85 -15.12,27.04 -36.52,48.42 -63.57,63.56 -26.98,15.1 -58.26,22.75 -92.99,22.75 -33.59,0 -63.48,-7.52 -88.82,-22.37 -11.41,-6.68 -21.78,-15.38 -30.37,-24.89 0,0 -0.84,3.92 -1.77,6.8"
         style="fill:#232a59;fill-opacity:1;fill-rule:nonzero;stroke:none"
         id="path44" /><path
         d="m 4424.4,1243.55 c -10.52,-19.99 -25.46,-35.89 -44.38,-47.26 -18.95,-11.34 -40.93,-17.11 -65.33,-17.11 -23.27,0 -44.52,5.75 -63.17,17.09 -18.65,11.36 -33.45,27.27 -44,47.28 -10.61,20.12 -15.98,43.61 -15.98,69.81 0,25.65 5.37,49.02 15.99,69.41 10.55,20.29 25.36,36.34 43.99,47.69 18.63,11.33 39.88,17.09 63.17,17.09 24.39,0 46.37,-5.89 65.28,-17.5 18.96,-11.67 33.91,-27.6 44.44,-47.33 10.61,-19.83 15.98,-43.16 15.98,-69.36 0,-26.22 -5.37,-49.69 -15.99,-69.81 z m -94.09,316.12 c -49.48,0 -103.11,-13.12 -138.77,-47.33 0,0 -0.83,3.92 -1.77,6.8 -7.22,22.25 -23.46,33.86 -48.87,33.86 h -70.7 v -0.18 -3.17 -21.51 -327.41 -144.52 -188.96 -0.012 h 121.34 v 0.012 188.96 57.29 l 0.28,-0.24 c 11.74,-10.24 24.89,-18.84 39.24,-25.65 28.6,-13.57 60.32,-20.45 94.3,-20.45 45.44,0 86.59,10.97 122.35,32.58 35.68,21.58 64.28,51.49 85.02,88.9 20.71,37.42 31.19,79.38 31.19,124.72 0,45.96 -10.64,87.96 -31.67,124.77 -42.4,73.72 -115.2,121.54 -201.94,121.54"
         style="fill:#232a59;fill-opacity:1;fill-rule:nonzero;stroke:none"
         id="path46" /><path
         d="m 2476.33,718.391 c -7.22,22.25 -23.47,33.847 -48.88,33.847 h -70.7 v -3.347 -476.25 h 121.34 V 552.32 c 0,19.52 3.8,36.469 11.32,50.36 7.44,13.851 17.97,24.781 31.28,32.511 13.36,7.731 28.84,11.661 45.98,11.661 17.68,0 33.28,-3.911 46.37,-11.633 13.03,-7.731 23.43,-18.68 30.9,-32.539 7.51,-13.918 11.31,-30.848 11.31,-50.36 V 272.641 h 121.34 V 578.68 c 0,35.281 -7.65,66.859 -22.74,93.851 -15.12,27.039 -36.52,48.418 -63.57,63.559 -26.98,15.109 -58.26,22.762 -93,22.762 -33.59,0 -63.47,-7.52 -88.82,-22.372 -11.4,-6.691 -21.77,-15.39 -30.36,-24.89 0,0 -0.84,3.922 -1.77,6.801"
         style="fill:#232a59;fill-opacity:1;fill-rule:nonzero;stroke:none"
         id="path48" /><path
         d="m 4036.02,711.59 c 0,0 -0.84,3.922 -1.78,6.801 -7.21,22.25 -23.46,33.847 -48.88,33.847 h -70.69 v -3.347 -476.25 h 121.34 v 262.668 l 0.05,0.41 c 0,41.082 20.21,68.883 32.96,81.801 18.43,18.73 46.26,29.031 76.01,29.031 29.75,0 46.51,-5.531 46.51,-5.531 v 112.449 c 0,0 -11.53,5.461 -33.25,5.543 -24.78,0 -43.65,-1.782 -65.94,-9.723 C 4070.06,741.34 4051,726 4036.02,711.59"
         style="fill:#232a59;fill-opacity:1;fill-rule:nonzero;stroke:none"
         id="path50" /></g></g></svg>
