# Blender 3.3.1
# www.blender.org
o Cone
v 0.000000 2.596325 -0.362202
v 0.070662 2.596325 -0.355242
v 0.138609 2.596325 -0.334631
v 0.201229 2.596325 -0.301160
v 0.256115 2.596325 -0.256115
v 0.301160 2.596325 -0.201229
v 0.334631 2.596325 -0.138609
v 0.355242 2.596325 -0.070662
v 0.362202 2.596325 -0.000000
v 0.355242 2.596325 0.070662
v 0.334631 2.596325 0.138609
v 0.301160 2.596325 0.201229
v 0.256115 2.596325 0.256115
v 0.201229 2.596325 0.301160
v 0.138609 2.596325 0.334631
v 0.070662 2.596325 0.355242
v 0.000000 2.596325 0.362202
v -0.070662 2.596325 0.355242
v -0.138609 2.596325 0.334631
v -0.201229 2.596325 0.301160
v -0.256115 2.596325 0.256115
v -0.301160 2.596325 0.201229
v -0.334631 2.596325 0.138609
v -0.355242 2.596325 0.070662
v -0.362202 2.596325 -0.000000
v -0.355242 2.596325 -0.070662
v -0.334631 2.596325 -0.138609
v -0.301160 2.596325 -0.201229
v -0.256115 2.596325 -0.256115
v -0.201229 2.596325 -0.301160
v -0.138609 2.596325 -0.334631
v -0.070662 2.596325 -0.355242
v 0.000000 3.320729 -0.000000
vn 0.0878 0.4455 -0.8910
vn 0.2599 0.4455 -0.8567
vn 0.4220 0.4455 -0.7896
vn 0.5680 0.4455 -0.6921
vn 0.6921 0.4455 -0.5680
vn 0.7896 0.4455 -0.4220
vn 0.8567 0.4455 -0.2599
vn 0.8910 0.4455 -0.0878
vn 0.8910 0.4455 0.0878
vn 0.8567 0.4455 0.2599
vn 0.7896 0.4455 0.4220
vn 0.6921 0.4455 0.5680
vn 0.5680 0.4455 0.6921
vn 0.4220 0.4455 0.7896
vn 0.2599 0.4455 0.8567
vn 0.0878 0.4455 0.8910
vn -0.0878 0.4455 0.8910
vn -0.2599 0.4455 0.8567
vn -0.4220 0.4455 0.7896
vn -0.5680 0.4455 0.6921
vn -0.6921 0.4455 0.5680
vn -0.7896 0.4455 0.4220
vn -0.8567 0.4455 0.2599
vn -0.8910 0.4455 0.0878
vn -0.8910 0.4455 -0.0878
vn -0.8567 0.4455 -0.2599
vn -0.7896 0.4455 -0.4220
vn -0.6921 0.4455 -0.5680
vn -0.5680 0.4455 -0.6921
vn -0.4220 0.4455 -0.7896
vn -0.0000 -1.0000 -0.0000
vn -0.2599 0.4455 -0.8567
vn -0.0878 0.4455 -0.8910
s 0
f 1//1 33//1 2//1
f 2//2 33//2 3//2
f 3//3 33//3 4//3
f 4//4 33//4 5//4
f 5//5 33//5 6//5
f 6//6 33//6 7//6
f 7//7 33//7 8//7
f 8//8 33//8 9//8
f 9//9 33//9 10//9
f 10//10 33//10 11//10
f 11//11 33//11 12//11
f 12//12 33//12 13//12
f 13//13 33//13 14//13
f 14//14 33//14 15//14
f 15//15 33//15 16//15
f 16//16 33//16 17//16
f 17//17 33//17 18//17
f 18//18 33//18 19//18
f 19//19 33//19 20//19
f 20//20 33//20 21//20
f 21//21 33//21 22//21
f 22//22 33//22 23//22
f 23//23 33//23 24//23
f 24//24 33//24 25//24
f 25//25 33//25 26//25
f 26//26 33//26 27//26
f 27//27 33//27 28//27
f 28//28 33//28 29//28
f 29//29 33//29 30//29
f 30//30 33//30 31//30
f 1//31 2//31 3//31 4//31 5//31 6//31 7//31 8//31 9//31 10//31 11//31 12//31 13//31 14//31 15//31 16//31 17//31 18//31 19//31 20//31 21//31 22//31 23//31 24//31 25//31 26//31 27//31 28//31 29//31 30//31 31//31 32//31
f 31//32 33//32 32//32
f 32//33 33//33 1//33
o Cylinder
v 0.000000 2.597647 0.146193
v 0.000000 0.018445 0.146193
v -0.028521 2.597647 0.143384
v -0.028521 0.018445 0.143384
v -0.055946 2.597647 0.135065
v -0.055946 0.018445 0.135065
v -0.081221 2.597647 0.121555
v -0.081221 0.018445 0.121555
v -0.103374 2.597647 0.103374
v -0.103374 0.018445 0.103374
v -0.121555 2.597647 0.081221
v -0.121555 0.018445 0.081221
v -0.135065 2.597647 0.055946
v -0.135065 0.018445 0.055946
v -0.143384 2.597647 0.028521
v -0.143384 0.018445 0.028521
v -0.146193 2.597647 0.000000
v -0.146193 0.018445 0.000000
v -0.143384 2.597647 -0.028521
v -0.143384 0.018445 -0.028521
v -0.135065 2.597647 -0.055946
v -0.135065 0.018445 -0.055946
v -0.121555 2.597647 -0.081221
v -0.121555 0.018445 -0.081221
v -0.103374 2.597647 -0.103374
v -0.103374 0.018445 -0.103374
v -0.081221 2.597647 -0.121555
v -0.081221 0.018445 -0.121555
v -0.055946 2.597647 -0.135065
v -0.055946 0.018445 -0.135065
v -0.028521 2.597647 -0.143384
v -0.028521 0.018445 -0.143384
v 0.000000 2.597647 -0.146193
v 0.000000 0.018445 -0.146193
v 0.028521 2.597647 -0.143384
v 0.028521 0.018445 -0.143384
v 0.055946 2.597647 -0.135065
v 0.055946 0.018445 -0.135065
v 0.081221 2.597647 -0.121555
v 0.081221 0.018445 -0.121555
v 0.103374 2.597647 -0.103374
v 0.103374 0.018445 -0.103374
v 0.121555 2.597647 -0.081221
v 0.121555 0.018445 -0.081221
v 0.135065 2.597647 -0.055946
v 0.135065 0.018445 -0.055946
v 0.143384 2.597647 -0.028521
v 0.143384 0.018445 -0.028521
v 0.146193 2.597647 0.000000
v 0.146193 0.018445 0.000000
v 0.143384 2.597647 0.028521
v 0.143384 0.018445 0.028521
v 0.135065 2.597647 0.055946
v 0.135065 0.018445 0.055946
v 0.121555 2.597647 0.081221
v 0.121555 0.018445 0.081221
v 0.103374 2.597647 0.103374
v 0.103374 0.018445 0.103374
v 0.081221 2.597647 0.121555
v 0.081221 0.018445 0.121555
v 0.055946 2.597647 0.135065
v 0.055946 0.018445 0.135065
v 0.028521 2.597647 0.143384
v 0.028521 0.018445 0.143384
vn -0.0980 -0.0000 0.9952
vn -0.2903 -0.0000 0.9569
vn -0.4714 -0.0000 0.8819
vn -0.6344 -0.0000 0.7730
vn -0.7730 -0.0000 0.6344
vn -0.8819 -0.0000 0.4714
vn -0.9569 -0.0000 0.2903
vn -0.9952 -0.0000 0.0980
vn -0.9952 -0.0000 -0.0980
vn -0.9569 -0.0000 -0.2903
vn -0.8819 -0.0000 -0.4714
vn -0.7730 -0.0000 -0.6344
vn -0.6344 -0.0000 -0.7730
vn -0.4714 -0.0000 -0.8819
vn -0.2903 -0.0000 -0.9569
vn -0.0980 -0.0000 -0.9952
vn 0.0980 -0.0000 -0.9952
vn 0.2903 -0.0000 -0.9569
vn 0.4714 -0.0000 -0.8819
vn 0.6344 -0.0000 -0.7730
vn 0.7730 -0.0000 -0.6344
vn 0.8819 -0.0000 -0.4714
vn 0.9569 -0.0000 -0.2903
vn 0.9952 -0.0000 -0.0980
vn 0.9952 -0.0000 0.0980
vn 0.9569 -0.0000 0.2903
vn 0.8819 -0.0000 0.4714
vn 0.7730 -0.0000 0.6344
vn 0.6344 -0.0000 0.7730
vn 0.4714 -0.0000 0.8819
vn -0.0000 -1.0000 -0.0000
vn 0.2903 -0.0000 0.9569
vn 0.0980 -0.0000 0.9952
vn -0.0000 1.0000 -0.0000
f 34//34 36//34 37//34 35//34
f 36//35 38//35 39//35 37//35
f 38//36 40//36 41//36 39//36
f 40//37 42//37 43//37 41//37
f 42//38 44//38 45//38 43//38
f 44//39 46//39 47//39 45//39
f 46//40 48//40 49//40 47//40
f 48//41 50//41 51//41 49//41
f 50//42 52//42 53//42 51//42
f 52//43 54//43 55//43 53//43
f 54//44 56//44 57//44 55//44
f 56//45 58//45 59//45 57//45
f 58//46 60//46 61//46 59//46
f 60//47 62//47 63//47 61//47
f 62//48 64//48 65//48 63//48
f 64//49 66//49 67//49 65//49
f 66//50 68//50 69//50 67//50
f 68//51 70//51 71//51 69//51
f 70//52 72//52 73//52 71//52
f 72//53 74//53 75//53 73//53
f 74//54 76//54 77//54 75//54
f 76//55 78//55 79//55 77//55
f 78//56 80//56 81//56 79//56
f 80//57 82//57 83//57 81//57
f 82//58 84//58 85//58 83//58
f 84//59 86//59 87//59 85//59
f 86//60 88//60 89//60 87//60
f 88//61 90//61 91//61 89//61
f 90//62 92//62 93//62 91//62
f 92//63 94//63 95//63 93//63
f 37//64 39//64 41//64 43//64 45//64 47//64 49//64 51//64 53//64 55//64 57//64 59//64 61//64 63//64 65//64 67//64 69//64 71//64 73//64 75//64 77//64 79//64 81//64 83//64 85//64 87//64 89//64 91//64 93//64 95//64 97//64 35//64
f 94//65 96//65 97//65 95//65
f 96//66 34//66 35//66 97//66
f 34//67 96//67 94//67 92//67 90//67 88//67 86//67 84//67 82//67 80//67 78//67 76//67 74//67 72//67 70//67 68//67 66//67 64//67 62//67 60//67 58//67 56//67 54//67 52//67 50//67 48//67 46//67 44//67 42//67 40//67 38//67 36//67
